<?xml version="1.0" encoding="utf-8"?>
<!-- Generator: Adobe Illustrator 25.0.1, SVG Export Plug-In . SVG Version: 6.00 Build 0)  -->
<svg version="1.1" xmlns="http://www.w3.org/2000/svg" xmlns:xlink="http://www.w3.org/1999/xlink" x="0px" y="0px"
	 viewBox="0 0 2364.19 750.92" style="enable-background:new 0 0 2364.19 750.92;" xml:space="preserve">
<style type="text/css">
	.st0{fill:#2C547A;}
	.st1{fill:#7ECBF1;}
	.st2{fill:none;}
</style>
<g id="Livello_2">
</g>
<g id="Livello_1">
	<g>
		<g>
			<path class="st0" d="M269.49,229.89c21.91-3.58,54.56-6.26,90.79-6.26c44.72,0,76.03,6.71,97.49,23.7
				c17.89,14.31,27.73,35.33,27.73,63.06c0,38.46-27.28,64.85-53.22,74.24v1.34c21.02,8.5,32.65,28.62,40.25,56.35
				c9.39,33.99,18.78,73.34,24.6,84.97h-69.77c-4.92-8.5-12.08-33.09-21.02-70.21c-8.05-37.57-21.02-47.85-48.75-48.3h-20.57v118.51
				h-67.53V229.89z M337.02,359.58h26.83c33.99,0,54.11-17,54.11-43.38c0-27.73-18.78-41.59-50.09-42.04
				c-16.55,0-25.94,1.34-30.86,2.24V359.58z"/>
		</g>
		<g>
			<path class="st0" d="M819.89,278.5c14.48-2.36,36.06-4.14,60.01-4.14c29.56,0,50.25,4.43,64.44,15.67
				c11.82,9.46,18.33,23.35,18.33,41.68c0,25.42-18.03,42.86-35.18,49.07v0.89c13.89,5.62,21.58,18.92,26.6,37.25
				c6.21,22.47,12.42,48.48,16.26,56.17h-46.11c-3.25-5.62-7.98-21.87-13.89-46.41c-5.32-24.83-13.89-31.63-32.22-31.93h-13.6v78.34
				h-44.64V278.5z M864.53,364.23h17.74c22.47,0,35.77-11.23,35.77-28.67c0-18.33-12.42-27.49-33.11-27.79
				c-10.94,0-17.14,0.89-20.4,1.48V364.23z"/>
			<path class="st0" d="M1176.39,373.39c0,65.33-39.61,104.94-97.85,104.94c-59.12,0-93.71-44.64-93.71-101.39
				c0-59.71,38.13-104.35,96.96-104.35C1142.99,272.59,1176.39,318.41,1176.39,373.39z M1032.43,376.05
				c0,39.02,18.33,66.51,48.48,66.51c30.45,0,47.89-28.97,47.89-67.69c0-35.77-17.15-66.51-48.18-66.51
				C1050.17,308.36,1032.43,337.33,1032.43,376.05z"/>
			<path class="st0" d="M1250.88,275.84v114.7c0,34.29,13.01,51.73,36.06,51.73c23.65,0,36.66-16.55,36.66-51.73v-114.7h44.93
				v111.74c0,61.49-31.04,90.75-83.07,90.75c-50.25,0-79.81-27.79-79.81-91.34V275.84H1250.88z"/>
			<path class="st0" d="M1407.55,475.08V275.84h52.62l41.39,73.02c11.82,20.99,23.65,45.82,32.52,68.29h0.89
				c-2.96-26.31-3.84-53.21-3.84-83.07v-58.23h41.38v199.24h-47.3l-42.57-76.86c-11.82-21.28-24.83-47-34.59-70.35l-0.89,0.3
				c1.18,26.31,1.77,54.39,1.77,86.91v60.01H1407.55z"/>
			<path class="st0" d="M1611.52,278.5c16.55-2.66,38.13-4.14,60.9-4.14c37.84,0,62.37,6.8,81.59,21.28
				c20.69,15.37,33.7,39.91,33.7,75.08c0,38.13-13.89,64.44-33.11,80.7c-20.99,17.44-52.91,25.72-91.93,25.72
				c-23.35,0-39.91-1.48-51.14-2.96V278.5z M1656.75,441.08c3.84,0.89,10.05,0.89,15.67,0.89c40.79,0.3,67.4-22.17,67.4-69.76
				c0.3-41.39-23.94-63.26-62.67-63.26c-10.05,0-16.55,0.89-20.4,1.77V441.08z"/>
			<path class="st1" d="M1858.94,423.94l-14.19,51.14h-46.71l60.9-199.24h59.12l61.78,199.24h-48.48l-15.37-51.14H1858.94z
				 M1909.49,390.24l-12.42-42.27c-3.55-11.82-7.09-26.6-10.05-38.43h-0.59c-2.96,11.82-5.91,26.9-9.16,38.43l-11.82,42.27H1909.49z
				"/>
			<path class="st1" d="M2006.45,278.5c13.89-2.36,33.4-4.14,60.9-4.14c27.79,0,47.59,5.32,60.89,15.96
				c12.71,10.05,21.28,26.6,21.28,46.11c0,19.51-6.5,36.06-18.33,47.3c-15.37,14.48-38.13,20.99-64.74,20.99
				c-5.91,0-11.23-0.3-15.37-0.89v71.24h-44.64V278.5z M2051.08,368.96c3.84,0.89,8.57,1.18,15.08,1.18
				c23.94,0,38.72-12.12,38.72-32.52c0-18.33-12.71-29.27-35.18-29.27c-9.16,0-15.37,0.89-18.62,1.77V368.96z"/>
			<path class="st1" d="M2178.19,278.5c13.89-2.36,33.4-4.14,60.9-4.14c27.79,0,47.59,5.32,60.89,15.96
				c12.71,10.05,21.28,26.6,21.28,46.11c0,19.51-6.5,36.06-18.33,47.3c-15.37,14.48-38.13,20.99-64.74,20.99
				c-5.91,0-11.23-0.3-15.37-0.89v71.24h-44.64V278.5z M2222.83,368.96c3.84,0.89,8.57,1.18,15.08,1.18
				c23.94,0,38.72-12.12,38.72-32.52c0-18.33-12.71-29.27-35.18-29.27c-9.16,0-15.37,0.89-18.62,1.77V368.96z"/>
		</g>
		<path class="st2" d="M606.13,521.3c26.48-42.33,41.81-92.33,41.81-145.84c0-152.06-123.71-275.76-275.76-275.76
			S96.42,223.4,96.42,375.46s123.71,275.76,275.76,275.76c71.42,0,136.58-27.29,185.61-71.99l-36.04-40.4L606.13,521.3z"/>
		<g>
			<path class="st1" d="M680.08,252.31c-16.83-39.8-40.92-75.53-71.61-106.21s-66.42-54.77-106.21-71.61
				c-41.22-17.43-84.99-26.27-130.09-26.27c-40.02,0-78.99,6.97-116.06,20.72l-15.27-34.59l-87.49,119.65l147.36,15.95l-20.92-47.37
				c28.89-10.31,60-15.92,92.39-15.92c152.06,0,275.76,123.71,275.76,275.76c0,53.51-15.32,103.51-41.81,145.84l60.74-12.62
				l-17.82,54.02c12.14-17.93,22.52-37.02,31.04-57.15c17.43-41.22,26.27-84.99,26.27-130.09S697.52,293.53,680.08,252.31z"/>
			<path class="st0" d="M648.18,534.32l-145.12,30.15l34.39,38.55c-46.09,34.61-103.32,55.14-165.26,55.14
				c-152.06,0-275.76-123.71-275.76-275.76c0-83.8,37.57-158.98,96.76-209.6l-63.58-6.88l30.67-41.94
				c-8.44,6.94-16.58,14.32-24.38,22.12c-30.68,30.68-54.77,66.42-71.61,106.21C46.84,293.53,38,337.3,38,382.4
				s8.84,88.87,26.27,130.09c16.83,39.8,40.92,75.53,71.61,106.21c30.68,30.68,66.42,54.77,106.21,71.61
				c41.22,17.43,84.99,26.27,130.09,26.27s88.87-8.84,130.09-26.27c26.69-11.29,51.55-25.84,74.28-43.46l25.18,28.23L648.18,534.32z
				"/>
		</g>
	</g>
</g>
</svg>
