<svg id="Livello_1" data-name="Livello 1" xmlns="http://www.w3.org/2000/svg" viewBox="0 0 200 80"><defs><style>.cls-1{fill:#1a1a18;}.cls-2{fill:#f47621;}</style></defs><path class="cls-1" d="M91.86,37.64a9.7,9.7,0,0,0-4.56-.82,21.37,21.37,0,0,0-6.43,1,.62.62,0,0,0-.47.59v.07l.28,1.41v0a.55.55,0,0,0,.54.42h0a.74.74,0,0,0,.17,0l.47-.11A20.9,20.9,0,0,1,87,39.38a7.2,7.2,0,0,1,2.67.35c.92.34.93.94.94,1.92v1.48h-.56a32.67,32.67,0,0,0-5,.37c-3,.46-5.49,1.18-5.47,5.31,0,5.25,4.87,5.25,7.21,5.26a20.26,20.26,0,0,0,4-.43c2.18-.51,2.74-1.2,2.71-3.37V41.53c0-1.33,0-3-1.71-3.89m-1.2,13.48a12.42,12.42,0,0,1-3.78.56v0c-2.15,0-4.25-.26-4.26-3,0-2.18,1.18-2.44,2.66-2.77l.1,0a40.46,40.46,0,0,1,5.28-.34Zm27.23-9.59v8.73c0,2.17-.52,2.86-2.71,3.37a20.08,20.08,0,0,1-4,.43c-2.34,0-7.2,0-7.2-5.26,0-4.13,2.46-4.85,5.46-5.31a32.84,32.84,0,0,1,5-.37H115V41.65c0-1,0-1.58-.93-1.92a7.26,7.26,0,0,0-2.68-.35,20.89,20.89,0,0,0-5.16.77l-.47.11a.74.74,0,0,1-.18,0h0a.57.57,0,0,1-.54-.42v0l-.27-1.41v-.07a.62.62,0,0,1,.46-.59,21.51,21.51,0,0,1,6.44-1,9.68,9.68,0,0,1,4.55.82c1.72.91,1.72,2.56,1.71,3.89m-2.9,4a40.7,40.7,0,0,0-5.29.34l-.1,0c-1.47.33-2.64.59-2.65,2.77,0,2.74,2.1,3,4.25,3v0a12.52,12.52,0,0,0,3.78-.56Zm47-8.72c-6.78,0-7.35,4.46-7.36,8.64s.58,8.59,7.36,8.6,7.35-4.43,7.36-8.61c0-4.36-.58-8.62-7.36-8.63m0,14.8c-4.11,0-4.32-2.12-4.35-6.16s.24-6.19,4.35-6.2,4.32,2.13,4.35,6.19-.24,6.16-4.35,6.17M149.8,53.45l-.18,0a16.48,16.48,0,0,1-4.52.57h0c-6.27,0-7.5-3.17-7.51-8.64,0-6.26,2-8.59,7.33-8.6a16.55,16.55,0,0,1,4.11.47v-5c0-.22.1-.51.62-.61l1.66-.42h.1c.38,0,.51.35.52.63v19c0,1.19-.12,2.22-2.11,2.64M149,39.72a16,16,0,0,0-3.86-.5c-3.21,0-4.56.91-4.59,6.24,0,5.85,1.78,6.16,4.62,6.19v0a15.1,15.1,0,0,0,3.82-.51ZM134,53.66h-1.49a.68.68,0,0,1-.7-.7V41.72c0-1.91-.59-2.44-2.64-2.46a22.5,22.5,0,0,0-5.44.79V53a.66.66,0,0,1-.67.7h-1.52a.68.68,0,0,1-.7-.7V40.35a2.12,2.12,0,0,1,1.75-2.52,25.26,25.26,0,0,1,6.64-1c3.83,0,5.47,1.39,5.47,4.62V53a.68.68,0,0,1-.7.7M100.3,54h0A2.62,2.62,0,0,0,102,53.5a.43.43,0,0,0,.11-.32,8.15,8.15,0,0,0-.24-1.19v0a.46.46,0,0,0-.43-.42H101c-.61,0-1.12-.11-1.13-1V31.84a.58.58,0,0,0-.55-.63h-.1l-1.67.42a.6.6,0,0,0-.57.61V50.59c0,2.18,1.17,3.37,3.28,3.38Zm-23.57-.31h-12a.68.68,0,0,1-.7-.7V51.5a1.07,1.07,0,0,1,.33-.79l9.51-11.06H64.59a.68.68,0,0,1-.7-.7v-1a.7.7,0,0,1,.7-.71H76.67a.7.7,0,0,1,.7.71V39.4a1.07,1.07,0,0,1-.3.74L67.52,51.23h9.21a.68.68,0,0,1,.7.7v1a.68.68,0,0,1-.7.7"/><path class="cls-2" d="M35.87,58.3A3.65,3.65,0,0,1,34,57.89a4.75,4.75,0,0,1-1.88-2.67,30.56,30.56,0,0,1-1.78-10.61v0A30.6,30.6,0,0,1,32.12,34,4.75,4.75,0,0,1,34,31.31a3.65,3.65,0,0,1,1.87-.41,9.3,9.3,0,0,1,1.37.12,30.82,30.82,0,0,1,10.09,3.76h0a30.51,30.51,0,0,1,8.3,6.86,4.73,4.73,0,0,1,1.37,3,4.77,4.77,0,0,1-1.37,3,30.68,30.68,0,0,1-8.3,6.85h0a30.59,30.59,0,0,1-10.09,3.76,8.1,8.1,0,0,1-1.37.12"/></svg>