<svg id="Livello_1" data-name="Livello 1" xmlns="http://www.w3.org/2000/svg" viewBox="0 0 200 80"><defs><style>.cls-1{fill:#010101;}</style></defs><path class="cls-1" d="M148.38,60.32h-4.27a2.81,2.81,0,0,0-.62-1.48,3.17,3.17,0,0,0-2.31-.7,3.47,3.47,0,0,0-2.2.53,1.39,1.39,0,0,0-.47,1.09c0,.65.9,1.16,2.67,1.56a42.47,42.47,0,0,1,4.39,1.13c.23.09.44.16.59.24a4.13,4.13,0,0,1,2.7,3.88,4.91,4.91,0,0,1-2.63,4.63c-.22.12-.43.22-.66.32a9.92,9.92,0,0,1-3.94.74,10.85,10.85,0,0,1-5.39-1.18,5.13,5.13,0,0,1-1.93-1.88,5.4,5.4,0,0,1-.64-2.66h4.47a2.13,2.13,0,0,0,.82,1.78,4.6,4.6,0,0,0,2.78.65,3.37,3.37,0,0,0,2.21-.62,1.39,1.39,0,0,0,.56-1.09c0-.69-.88-1.23-2.63-1.62a27.88,27.88,0,0,1-4.94-1.34,4.08,4.08,0,0,1-2.68-3.92,5.14,5.14,0,0,1,1.4-3.66,6.91,6.91,0,0,1,5.28-1.87,11.1,11.1,0,0,1,4.63.82,2.49,2.49,0,0,1,.28.15,4.72,4.72,0,0,1,1.89,1.81A5.43,5.43,0,0,1,148.38,60.32Z"/><path class="cls-1" d="M146.1,49.91a.38.38,0,0,0-.06-.22.4.4,0,0,0-.19-.15l-.28,0h-.68v.82h.68a.55.55,0,0,0,.39-.12A.36.36,0,0,0,146.1,49.91Zm.35-.44a.64.64,0,0,1,.13.4.69.69,0,0,1-.22.52.84.84,0,0,1-.57.25.83.83,0,0,1,.23.15l.41.55.33.54h-.53l-.25-.44a2.4,2.4,0,0,0-.41-.59l-.06,0-.35-.11h-.27v1.18h-.44V49.12h1.12a1.74,1.74,0,0,1,.53.07A.71.71,0,0,1,146.45,49.47Z"/><path class="cls-1" d="M147.7,50.47a2.16,2.16,0,0,0-1.07-1.87,2.39,2.39,0,0,0-1-.28h0a2.35,2.35,0,0,0-1,.28,2,2,0,0,0-.79.8,2.1,2.1,0,0,0,0,2.13,2,2,0,0,0,.78.78,2.13,2.13,0,0,0,1.06.28h0a2.13,2.13,0,0,0,1.06-.28,2,2,0,0,0,.78-.78A2.13,2.13,0,0,0,147.7,50.47Zm.43,0a2.54,2.54,0,0,1-.34,1.26,2.24,2.24,0,0,1-.94.94,2.47,2.47,0,0,1-1.27.34h0a2.45,2.45,0,0,1-1.27-.34,2.24,2.24,0,0,1-.94-.94,2.54,2.54,0,0,1-.34-1.26,2.63,2.63,0,0,1,.34-1.3,2.48,2.48,0,0,1,1-.94,2.71,2.71,0,0,1,1.25-.33h0a2.6,2.6,0,0,1,1.25.33,2.35,2.35,0,0,1,1,.94A2.63,2.63,0,0,1,148.13,50.47Z"/><polygon class="cls-1" points="123.11 29.69 135.19 49.81 123.11 49.81 115.79 49.81 104.26 30.59 95.53 16.05 104.26 10.8 109.76 7.49 123.11 29.69"/><path class="cls-1" d="M131.88,63.77V72h-4v-.91a8.6,8.6,0,0,1-4.7,1.4h0a8.74,8.74,0,0,1,0-17.47h0a8.6,8.6,0,0,1,4.7,1.4v-1h4Zm-4,.92V62.86a4.81,4.81,0,0,0-4.7-3.88h0a4.8,4.8,0,0,0,0,9.6h0A4.81,4.81,0,0,0,127.86,64.69Z"/><path class="cls-1" d="M113,63.77V72h-4v-.91a8.62,8.62,0,0,1-4.7,1.4h0a8.74,8.74,0,0,1,0-17.47h0a8.62,8.62,0,0,1,4.7,1.4V49.81h4Zm-4,.92V62.86a4.81,4.81,0,0,0-4.7-3.88h0a4.8,4.8,0,0,0,0,9.6h0A4.81,4.81,0,0,0,109,64.69Z"/><polygon class="cls-1" points="104.26 41.9 109 49.81 104.26 49.81 89.62 49.81 78.86 31.9 78.39 31.12 78.86 30.84 92.63 22.55 104.26 41.9"/><rect class="cls-1" x="89.63" y="55.04" width="4.37" height="16.98"/><rect class="cls-1" x="89.63" y="49.89" width="4.37" height="3.84"/><path class="cls-1" d="M87.63,63.77V72h-4v-.91a8.69,8.69,0,0,1-4.72,1.4h0a8.74,8.74,0,0,1,0-17.47h0a8.69,8.69,0,0,1,4.72,1.4V49.81h4Zm-4,.92V62.86A4.82,4.82,0,0,0,78.9,59h0a4.8,4.8,0,0,0,0,9.6h0A4.83,4.83,0,0,0,83.62,64.69Z"/><polygon class="cls-1" points="78.86 43.19 82.83 49.81 78.86 49.81 63.43 49.81 61.26 46.18 75.5 37.62 78.86 43.19"/><path class="cls-1" d="M68.59,63.77V72h-4v-.91a8.72,8.72,0,0,1-4.72,1.4h0a8.74,8.74,0,0,1,0-17.47h0a8.72,8.72,0,0,1,4.72,1.4v-1h4Zm-4,.92V62.86A4.82,4.82,0,0,0,59.86,59h0a4.8,4.8,0,0,0,0,9.6h0A4.83,4.83,0,0,0,64.58,64.69Z"/></svg>