<svg id="Livello_1" data-name="Livello 1" xmlns="http://www.w3.org/2000/svg" viewBox="0 0 200 80"><defs><style>.cls-1{fill:#135b85;fill-rule:evenodd;}</style></defs><path class="cls-1" d="M106.93,39.25a17.8,17.8,0,0,0-2.26-1.19,17.81,17.81,0,0,1-3.2-1.83,1.88,1.88,0,0,1-.43-2.12,1.34,1.34,0,0,1,1.36-.74s1.43.08,1.43,1.25v1.66H109V33.84s.39-4-6-4.18c0,0-5.06-.33-6.52,2.39,0,0-.56.61-.56,2.73v1.53a5,5,0,0,0,.84,2.9,6.62,6.62,0,0,0,1.76,1.57s2.55,1.37,4.08,2.16c0,0,1.55.88,1.35,2.29a1.52,1.52,0,0,1-1.62,1.38,1.44,1.44,0,0,1-1.37-1.48V43.47H95.41v2.41s-.15,4.61,6.87,4.61c0,0,6.71.14,7-4.73v-2a5.11,5.11,0,0,0-2.37-4.55Z"/><polygon class="cls-1" points="80.67 30.23 78.96 40.99 78.56 40.99 76.92 30.33 68.35 30.33 67.92 49.82 72.99 49.82 73.05 35.13 73.45 35.13 76.14 49.81 81.48 49.81 84.13 35.14 84.49 35.14 84.61 49.82 89.71 49.82 89.16 30.23 80.67 30.23 80.67 30.23"/><polygon class="cls-1" points="50.48 30.32 47.11 49.8 52.57 49.8 54.57 34.69 55.02 34.69 57.02 49.8 62.47 49.8 59.1 30.32 50.48 30.32 50.48 30.32"/><path class="cls-1" d="M165.05,39v2.88h1.4v3.08a1.4,1.4,0,1,1-2.79.11V34.38c0-1.1,1.39-1.16,1.39-1.16a1.3,1.3,0,0,1,1.34,1.31v1.62h5.14c.17-3.17-.46-3.93-.46-3.93-1.28-2.87-6.1-2.71-6.1-2.71-7.41,0-6.59,5.69-6.59,5.69V45.52c.16,5.33,7.46,4.79,7.59,4.78,3.25-.36,4.23-1.39,4.23-1.39a3.15,3.15,0,0,0,1.13-1.6,9.39,9.39,0,0,0,.33-2.26V39Z"/><polygon class="cls-1" points="148.01 42.16 147.79 42.16 142.57 30.24 136.33 30.24 136.33 49.82 141.41 49.82 141.11 37.91 141.33 37.91 146.74 49.82 152.79 49.82 152.79 30.24 147.65 30.24 148.01 42.16 148.01 42.16"/><path class="cls-1" d="M123.93,44.94s.07,1.61-1.42,1.61A1.47,1.47,0,0,1,121,45l0-14.73h-5.57V44.86s-.57,5.53,7.23,5.53c0,0,6.78.08,6.78-5.27V30.25h-5.44V44.94Z"/><path class="cls-1" d="M39.86,39.25a18.17,18.17,0,0,0-2.25-1.19,17.81,17.81,0,0,1-3.2-1.83A1.86,1.86,0,0,1,34,34.11a1.31,1.31,0,0,1,1.35-.74s1.43.08,1.43,1.25v1.66h5.13V33.84s.39-4-6-4.18a11.1,11.1,0,0,0-1.19,0s-3.9.2-5.29,2.34l0,0s-.57.61-.57,2.73v1.53a5,5,0,0,0,.84,2.9,6.58,6.58,0,0,0,1.77,1.57s2.55,1.37,4.08,2.16c0,0,1.54.88,1.34,2.29a1.52,1.52,0,0,1-1.62,1.38,1.43,1.43,0,0,1-1.36-1.48V43.47H28.34v2.41s-.15,4.61,6.87,4.61c0,0,6.71.14,7-4.73v-2a5.14,5.14,0,0,0-2.38-4.55Z"/></svg>